<svg version="1.1" viewBox="0.0 0.0 960.0 540.0" fill="none" stroke="none" stroke-linecap="square" stroke-miterlimit="10" xmlns:xlink="http://www.w3.org/1999/xlink" xmlns="http://www.w3.org/2000/svg"><clipPath id="g115f44bae53_0_4.0"><path d="m0 0l960.0 0l0 540.0l-960.0 0l0 -540.0z" clip-rule="nonzero"/></clipPath><g clip-path="url(#g115f44bae53_0_4.0)"><path fill="#ffffff" d="m0 0l960.0 0l0 540.0l-960.0 0z" fill-rule="evenodd"/><path fill="#393939" d="m257.12598 245.59973l0 0c0 -2.0699768 1.6780701 -3.7480316 3.7480469 -3.7480316l0 0c0.99401855 0 1.9473572 0.3948822 2.650238 1.0977783c0.7029114 0.7028961 1.0977783 1.6562195 1.0977783 2.6502533l0 0c0 2.069992 -1.6780396 3.7480316 -3.7480164 3.7480316l0 0c-2.0699768 0 -3.7480469 -1.6780396 -3.7480469 -3.7480316z" fill-rule="evenodd"/><path stroke="#393939" stroke-width="1.0" stroke-linejoin="round" stroke-linecap="butt" d="m257.12598 245.59973l0 0c0 -2.0699768 1.6780701 -3.7480316 3.7480469 -3.7480316l0 0c0.99401855 0 1.9473572 0.3948822 2.650238 1.0977783c0.7029114 0.7028961 1.0977783 1.6562195 1.0977783 2.6502533l0 0c0 2.069992 -1.6780396 3.7480316 -3.7480164 3.7480316l0 0c-2.0699768 0 -3.7480469 -1.6780396 -3.7480469 -3.7480316z" fill-rule="evenodd"/><path fill="#393939" d="m242.75066 243.72572l0 0c0 -2.0699768 1.6780548 -3.7480316 3.7480316 -3.7480316l0 0c0.9940338 0 1.9473724 0.3948822 2.6502533 1.0977783c0.7028961 0.70288086 1.0977783 1.6562195 1.0977783 2.6502533l0 0c0 2.0699768 -1.6780548 3.7480316 -3.7480316 3.7480316l0 0c-2.0699768 0 -3.7480316 -1.6780548 -3.7480316 -3.7480316z" fill-rule="evenodd"/><path stroke="#393939" stroke-width="1.0" stroke-linejoin="round" stroke-linecap="butt" d="m242.75066 243.72572l0 0c0 -2.0699768 1.6780548 -3.7480316 3.7480316 -3.7480316l0 0c0.9940338 0 1.9473724 0.3948822 2.6502533 1.0977783c0.7028961 0.70288086 1.0977783 1.6562195 1.0977783 2.6502533l0 0c0 2.0699768 -1.6780548 3.7480316 -3.7480316 3.7480316l0 0c-2.0699768 0 -3.7480316 -1.6780548 -3.7480316 -3.7480316z" fill-rule="evenodd"/><path fill="#393939" d="m178.47507 217.09842l0 0c0 -2.0699768 1.6780548 -3.7480316 3.7480316 -3.7480316l0 0c0.9940338 0 1.9473572 0.3948822 2.6502533 1.0977783c0.7028961 0.7028961 1.0977783 1.6562195 1.0977783 2.6502533l0 0c0 2.069992 -1.6780548 3.7480316 -3.7480316 3.7480316l0 0c-2.0699768 0 -3.7480316 -1.6780396 -3.7480316 -3.7480316z" fill-rule="evenodd"/><path stroke="#393939" stroke-width="1.0" stroke-linejoin="round" stroke-linecap="butt" d="m178.47507 217.09842l0 0c0 -2.0699768 1.6780548 -3.7480316 3.7480316 -3.7480316l0 0c0.9940338 0 1.9473572 0.3948822 2.6502533 1.0977783c0.7028961 0.7028961 1.0977783 1.6562195 1.0977783 2.6502533l0 0c0 2.069992 -1.6780548 3.7480316 -3.7480316 3.7480316l0 0c-2.0699768 0 -3.7480316 -1.6780396 -3.7480316 -3.7480316z" fill-rule="evenodd"/><path fill="#393939" d="m166.78937 207.47441l0 0c0 -2.0699768 1.6780548 -3.7480316 3.7480316 -3.7480316l0 0c0.9940491 0 1.9473724 0.3948822 2.6502533 1.0977783c0.7028961 0.70288086 1.0977783 1.6562195 1.0977783 2.6502533l0 0c0 2.0699768 -1.6780548 3.7480316 -3.7480316 3.7480316l0 0c-2.0699768 0 -3.7480316 -1.6780548 -3.7480316 -3.7480316z" fill-rule="evenodd"/><path stroke="#393939" stroke-width="1.0" stroke-linejoin="round" stroke-linecap="butt" d="m166.78937 207.47441l0 0c0 -2.0699768 1.6780548 -3.7480316 3.7480316 -3.7480316l0 0c0.9940491 0 1.9473724 0.3948822 2.6502533 1.0977783c0.7028961 0.70288086 1.0977783 1.6562195 1.0977783 2.6502533l0 0c0 2.0699768 -1.6780548 3.7480316 -3.7480316 3.7480316l0 0c-2.0699768 0 -3.7480316 -1.6780548 -3.7480316 -3.7480316z" fill-rule="evenodd"/><path fill="#393939" d="m155.60367 197.35039l0 0c0 -2.0699768 1.6780548 -3.7480316 3.7480316 -3.7480316l0 0c0.9940491 0 1.9473724 0.3948822 2.6502686 1.0977783c0.70288086 0.7028961 1.0977631 1.6562195 1.0977631 2.6502533l0 0c0 2.069992 -1.6780396 3.7480316 -3.7480316 3.7480316l0 0c-2.0699768 0 -3.7480316 -1.6780396 -3.7480316 -3.7480316z" fill-rule="evenodd"/><path stroke="#393939" stroke-width="1.0" stroke-linejoin="round" stroke-linecap="butt" d="m155.60367 197.35039l0 0c0 -2.0699768 1.6780548 -3.7480316 3.7480316 -3.7480316l0 0c0.9940491 0 1.9473724 0.3948822 2.6502686 1.0977783c0.70288086 0.7028961 1.0977631 1.6562195 1.0977631 2.6502533l0 0c0 2.069992 -1.6780396 3.7480316 -3.7480316 3.7480316l0 0c-2.0699768 0 -3.7480316 -1.6780396 -3.7480316 -3.7480316z" fill-rule="evenodd"/><path fill="#000000" fill-opacity="0.0" d="m296.93964 96.0l0 127.49606" fill-rule="evenodd"/><path stroke="#393939" stroke-width="8.0" stroke-linejoin="round" stroke-linecap="butt" d="m296.93964 96.0l0 127.49606" fill-rule="evenodd"/><path fill="#000000" fill-opacity="0.0" d="m275.33334 245.61417l0 0c0 -11.932816 9.673462 -21.606293 21.606293 -21.606293l0 0c5.7303467 0 11.225983 2.2763672 15.277954 6.3283386c4.0519714 4.0519714 6.3283386 9.547607 6.3283386 15.277954l0 0c0 11.932831 -9.673462 21.606293 -21.606293 21.606293l0 0c-11.932831 0 -21.606293 -9.673462 -21.606293 -21.606293z" fill-rule="evenodd"/><path stroke="#393939" stroke-width="8.0" stroke-linejoin="round" stroke-linecap="butt" d="m275.33334 245.61417l0 0c0 -11.932816 9.673462 -21.606293 21.606293 -21.606293l0 0c5.7303467 0 11.225983 2.2763672 15.277954 6.3283386c4.0519714 4.0519714 6.3283386 9.547607 6.3283386 15.277954l0 0c0 11.932831 -9.673462 21.606293 -21.606293 21.606293l0 0c-11.932831 0 -21.606293 -9.673462 -21.606293 -21.606293z" fill-rule="evenodd"/><path fill="#393939" d="m293.41306 95.69226l0 0c0 -1.8786392 1.5793457 -3.4015808 3.5275574 -3.4015808l0 0c0.9355774 0 1.8328247 0.35838318 2.4943542 0.99629974c0.66156006 0.63791656 1.0332031 1.5031204 1.0332031 2.405281l0 0c0 1.8786316 -1.5793457 3.4015732 -3.5275574 3.4015732l0 0c-1.9482117 0 -3.5275574 -1.5229416 -3.5275574 -3.4015732z" fill-rule="evenodd"/><path stroke="#393939" stroke-width="1.0" stroke-linejoin="round" stroke-linecap="butt" d="m293.41306 95.69226l0 0c0 -1.8786392 1.5793457 -3.4015808 3.5275574 -3.4015808l0 0c0.9355774 0 1.8328247 0.35838318 2.4943542 0.99629974c0.66156006 0.63791656 1.0332031 1.5031204 1.0332031 2.405281l0 0c0 1.8786316 -1.5793457 3.4015732 -3.5275574 3.4015732l0 0c-1.9482117 0 -3.5275574 -1.5229416 -3.5275574 -3.4015732z" fill-rule="evenodd"/><path fill="#000000" fill-opacity="0.0" d="m357.27298 96.0l0 127.49606" fill-rule="evenodd"/><path stroke="#393939" stroke-width="8.0" stroke-linejoin="round" stroke-linecap="butt" d="m357.27298 96.0l0 127.49606" fill-rule="evenodd"/><path fill="#000000" fill-opacity="0.0" d="m335.66666 245.61417l0 0c0 -11.932816 9.673492 -21.606293 21.606323 -21.606293l0 0c5.7303467 0 11.225983 2.2763672 15.277954 6.3283386c4.0519714 4.0519714 6.3283386 9.547607 6.3283386 15.277954l0 0c0 11.932831 -9.673462 21.606293 -21.606293 21.606293l0 0c-11.932831 0 -21.606323 -9.673462 -21.606323 -21.606293z" fill-rule="evenodd"/><path stroke="#393939" stroke-width="8.0" stroke-linejoin="round" stroke-linecap="butt" d="m335.66666 245.61417l0 0c0 -11.932816 9.673492 -21.606293 21.606323 -21.606293l0 0c5.7303467 0 11.225983 2.2763672 15.277954 6.3283386c4.0519714 4.0519714 6.3283386 9.547607 6.3283386 15.277954l0 0c0 11.932831 -9.673462 21.606293 -21.606293 21.606293l0 0c-11.932831 0 -21.606323 -9.673462 -21.606323 -21.606293z" fill-rule="evenodd"/><path fill="#393939" d="m353.7464 95.69226l0 0c0 -1.8786392 1.5793457 -3.4015808 3.5275574 -3.4015808l0 0c0.9355469 0 1.8327942 0.35838318 2.4943542 0.99629974c0.66156006 0.63791656 1.0332031 1.5031204 1.0332031 2.405281l0 0c0 1.8786316 -1.5793457 3.4015732 -3.5275574 3.4015732l0 0c-1.9482117 0 -3.5275574 -1.5229416 -3.5275574 -3.4015732z" fill-rule="evenodd"/><path stroke="#393939" stroke-width="1.0" stroke-linejoin="round" stroke-linecap="butt" d="m353.7464 95.69226l0 0c0 -1.8786392 1.5793457 -3.4015808 3.5275574 -3.4015808l0 0c0.9355469 0 1.8327942 0.35838318 2.4943542 0.99629974c0.66156006 0.63791656 1.0332031 1.5031204 1.0332031 2.405281l0 0c0 1.8786316 -1.5793457 3.4015732 -3.5275574 3.4015732l0 0c-1.9482117 0 -3.5275574 -1.5229416 -3.5275574 -3.4015732z" fill-rule="evenodd"/><path fill="#000000" fill-opacity="0.0" d="m417.6063 96.0l0 127.49606" fill-rule="evenodd"/><path stroke="#393939" stroke-width="8.0" stroke-linejoin="round" stroke-linecap="butt" d="m417.6063 96.0l0 127.49606" fill-rule="evenodd"/><path fill="#000000" fill-opacity="0.0" d="m396.0 245.61417l0 0c0 -11.932816 9.673462 -21.606293 21.606293 -21.606293l0 0c5.7303467 0 11.226013 2.2763672 15.277954 6.3283386c4.0519714 4.0519714 6.3283386 9.547607 6.3283386 15.277954l0 0c0 11.932831 -9.673462 21.606293 -21.606293 21.606293l0 0c-11.932831 0 -21.606293 -9.673462 -21.606293 -21.606293z" fill-rule="evenodd"/><path stroke="#393939" stroke-width="8.0" stroke-linejoin="round" stroke-linecap="butt" d="m396.0 245.61417l0 0c0 -11.932816 9.673462 -21.606293 21.606293 -21.606293l0 0c5.7303467 0 11.226013 2.2763672 15.277954 6.3283386c4.0519714 4.0519714 6.3283386 9.547607 6.3283386 15.277954l0 0c0 11.932831 -9.673462 21.606293 -21.606293 21.606293l0 0c-11.932831 0 -21.606293 -9.673462 -21.606293 -21.606293z" fill-rule="evenodd"/><path fill="#393939" d="m414.0797 95.69226l0 0c0 -1.8786392 1.5793457 -3.4015808 3.5275574 -3.4015808l0 0c0.9355774 0 1.8328247 0.35838318 2.4943848 0.99629974c0.66152954 0.63791656 1.0332031 1.5031204 1.0332031 2.405281l0 0c0 1.8786316 -1.5793457 3.4015732 -3.527588 3.4015732l0 0c-1.9482117 0 -3.5275574 -1.5229416 -3.5275574 -3.4015732z" fill-rule="evenodd"/><path stroke="#393939" stroke-width="1.0" stroke-linejoin="round" stroke-linecap="butt" d="m414.0797 95.69226l0 0c0 -1.8786392 1.5793457 -3.4015808 3.5275574 -3.4015808l0 0c0.9355774 0 1.8328247 0.35838318 2.4943848 0.99629974c0.66152954 0.63791656 1.0332031 1.5031204 1.0332031 2.405281l0 0c0 1.8786316 -1.5793457 3.4015732 -3.527588 3.4015732l0 0c-1.9482117 0 -3.5275574 -1.5229416 -3.5275574 -3.4015732z" fill-rule="evenodd"/><path fill="#000000" fill-opacity="0.0" d="m263.332 94.04508l-43.603653 119.80805" fill-rule="evenodd"/><path stroke="#393939" stroke-width="8.0" stroke-linejoin="round" stroke-linecap="butt" d="m263.332 94.04508l-43.603653 119.80805" fill-rule="evenodd"/><path fill="#000000" fill-opacity="0.0" d="m191.86052 227.24817l0 0c4.081024 -11.213287 16.479507 -16.995117 27.692795 -12.914093l0 0c5.3848114 1.9597778 9.770554 5.9783936 12.192413 11.171799c2.4218597 5.1934204 2.6814423 11.136185 0.7216644 16.520996l0 0c-4.081024 11.213287 -16.479507 16.995102 -27.692795 12.914093l0 0c-11.213272 -4.0810394 -16.995102 -16.479523 -12.914078 -27.692795z" fill-rule="evenodd"/><path stroke="#393939" stroke-width="8.0" stroke-linejoin="round" stroke-linecap="butt" d="m191.86052 227.24817l0 0c4.081024 -11.213287 16.479507 -16.995117 27.692795 -12.914093l0 0c5.3848114 1.9597778 9.770554 5.9783936 12.192413 11.171799c2.4218597 5.1934204 2.6814423 11.136185 0.7216644 16.520996l0 0c-4.081024 11.213287 -16.479507 16.995102 -27.692795 12.914093l0 0c-11.213272 -4.0810394 -16.995102 -16.479523 -12.914078 -27.692795z" fill-rule="evenodd"/><path fill="#393939" d="m260.12332 92.549805l0 0c0.6425171 -1.765358 2.647461 -2.6563263 4.4782104 -1.990036l0 0c0.8791504 0.31996918 1.5997314 0.9635925 2.0032043 1.789299c0.4034729 0.82569885 0.45681763 1.7658386 0.14828491 2.6135864l0 0c-0.6424866 1.765358 -2.6474304 2.6563263 -4.47818 1.990036l0 0c-1.8307495 -0.6662903 -2.7940063 -2.6375275 -2.1515198 -4.4028854z" fill-rule="evenodd"/><path stroke="#393939" stroke-width="1.0" stroke-linejoin="round" stroke-linecap="butt" d="m260.12332 92.549805l0 0c0.6425171 -1.765358 2.647461 -2.6563263 4.4782104 -1.990036l0 0c0.8791504 0.31996918 1.5997314 0.9635925 2.0032043 1.789299c0.4034729 0.82569885 0.45681763 1.7658386 0.14828491 2.6135864l0 0c-0.6424866 1.765358 -2.6474304 2.6563263 -4.47818 1.990036l0 0c-1.8307495 -0.6662903 -2.7940063 -2.6375275 -2.1515198 -4.4028854z" fill-rule="evenodd"/></g></svg>